<mxfile host="65bd71144e">
    <diagram id="9wvq5fsrduSl6sW0iOVs" name="Page-1">
        <mxGraphModel dx="1382" dy="917" grid="1" gridSize="10" guides="1" tooltips="1" connect="1" arrows="1" fold="1" page="1" pageScale="1" pageWidth="1200" pageHeight="1920" math="0" shadow="0">
            <root>
                <mxCell id="0"/>
                <mxCell id="1" parent="0"/>
                <mxCell id="2" value="Series" style="swimlane;fontStyle=1;childLayout=stackLayout;horizontal=1;startSize=26;fillColor=#FFFFFF;horizontalStack=0;resizeParent=1;resizeParentMax=0;resizeLast=0;collapsible=1;marginBottom=0;fontColor=#000000;strokeColor=#000000;" parent="1" vertex="1">
                    <mxGeometry x="110" y="190" width="80" height="690" as="geometry"/>
                </mxCell>
                <mxCell id="3" value="E2" style="text;strokeColor=#000000;fillColor=#E6E6E6;align=center;verticalAlign=middle;spacingLeft=4;spacingRight=4;overflow=hidden;rotatable=0;points=[[0,0.5],[1,0.5]];portConstraint=eastwest;fontColor=#000000;fontStyle=1" parent="2" vertex="1">
                    <mxGeometry y="26" width="80" height="84" as="geometry"/>
                </mxCell>
                <mxCell id="4" value="N2,N2D,N1" style="text;strokeColor=#000000;fillColor=#99CCFF;align=center;verticalAlign=middle;spacingLeft=4;spacingRight=4;overflow=hidden;rotatable=0;points=[[0,0.5],[1,0.5]];portConstraint=eastwest;fontColor=#000000;fontStyle=1" parent="2" vertex="1">
                    <mxGeometry y="110" width="80" height="80" as="geometry"/>
                </mxCell>
                <mxCell id="5" value="Tau T2D" style="text;strokeColor=#000000;fillColor=#E6E6E6;align=center;verticalAlign=middle;spacingLeft=4;spacingRight=4;overflow=hidden;rotatable=0;points=[[0,0.5],[1,0.5]];portConstraint=eastwest;fontColor=#000000;fontStyle=1" parent="2" vertex="1">
                    <mxGeometry y="190" width="80" height="80" as="geometry"/>
                </mxCell>
                <mxCell id="66" value="C2" style="text;strokeColor=#000000;fillColor=#99CCFF;align=center;verticalAlign=middle;spacingLeft=4;spacingRight=4;overflow=hidden;rotatable=0;points=[[0,0.5],[1,0.5]];portConstraint=eastwest;fontColor=#000000;fontStyle=1" vertex="1" parent="2">
                    <mxGeometry y="270" width="80" height="100" as="geometry"/>
                </mxCell>
                <mxCell id="67" value="C2D" style="text;strokeColor=#000000;fillColor=#E6E6E6;align=center;verticalAlign=middle;spacingLeft=4;spacingRight=4;overflow=hidden;rotatable=0;points=[[0,0.5],[1,0.5]];portConstraint=eastwest;fontColor=#000000;fontStyle=1" vertex="1" parent="2">
                    <mxGeometry y="370" width="80" height="80" as="geometry"/>
                </mxCell>
                <mxCell id="71" value="M1" style="text;strokeColor=#000000;fillColor=#99CCFF;align=center;verticalAlign=middle;spacingLeft=4;spacingRight=4;overflow=hidden;rotatable=0;points=[[0,0.5],[1,0.5]];portConstraint=eastwest;fontColor=#000000;fontStyle=1" vertex="1" parent="2">
                    <mxGeometry y="450" width="80" height="80" as="geometry"/>
                </mxCell>
                <mxCell id="70" value="M2" style="text;strokeColor=#000000;fillColor=#E6E6E6;align=center;verticalAlign=middle;spacingLeft=4;spacingRight=4;overflow=hidden;rotatable=0;points=[[0,0.5],[1,0.5]];portConstraint=eastwest;fontColor=#000000;fontStyle=1" vertex="1" parent="2">
                    <mxGeometry y="530" width="80" height="80" as="geometry"/>
                </mxCell>
                <mxCell id="69" value="A2" style="text;strokeColor=#000000;fillColor=#99CCFF;align=center;verticalAlign=middle;spacingLeft=4;spacingRight=4;overflow=hidden;rotatable=0;points=[[0,0.5],[1,0.5]];portConstraint=eastwest;fontColor=#000000;fontStyle=1" vertex="1" parent="2">
                    <mxGeometry y="610" width="80" height="80" as="geometry"/>
                </mxCell>
                <mxCell id="23" value="Workload" style="swimlane;fontStyle=1;childLayout=stackLayout;horizontal=1;startSize=26;fillColor=#330066;horizontalStack=0;resizeParent=1;resizeParentMax=0;resizeLast=0;collapsible=1;marginBottom=0;fontColor=#FFFFFF;" parent="1" vertex="1">
                    <mxGeometry x="300" y="190" width="140" height="690" as="geometry"/>
                </mxCell>
                <mxCell id="24" value="Cost-optimized:&#10;Day-to-day computing at a lower cost" style="text;strokeColor=default;fillColor=#E6E6E6;align=center;verticalAlign=middle;spacingLeft=4;spacingRight=4;overflow=hidden;rotatable=0;points=[[0,0.5],[1,0.5]];portConstraint=eastwest;fontColor=#000000;fontStyle=1;whiteSpace=wrap;" parent="23" vertex="1">
                    <mxGeometry y="26" width="140" height="84" as="geometry"/>
                </mxCell>
                <mxCell id="25" value="Balanced:&#10;Balanced price/performance across a wide range of VM shapes" style="text;strokeColor=default;fillColor=#99CCFF;align=center;verticalAlign=middle;spacingLeft=4;spacingRight=4;overflow=hidden;rotatable=0;points=[[0,0.5],[1,0.5]];portConstraint=eastwest;fontStyle=1;whiteSpace=wrap;" parent="23" vertex="1">
                    <mxGeometry y="110" width="140" height="80" as="geometry"/>
                </mxCell>
                <mxCell id="26" value="Scale-out optimized:&#10;Best performance/ cost for scale-out workloads" style="text;strokeColor=default;fillColor=#E6E6E6;align=center;verticalAlign=middle;spacingLeft=4;spacingRight=4;overflow=hidden;rotatable=0;points=[[0,0.5],[1,0.5]];portConstraint=eastwest;whiteSpace=wrap;fontStyle=1" parent="23" vertex="1">
                    <mxGeometry y="190" width="140" height="80" as="geometry"/>
                </mxCell>
                <mxCell id="81" value="Ultra high performance for compute-intensive workloads" style="text;strokeColor=default;fillColor=#99CCFF;align=center;verticalAlign=middle;spacingLeft=4;spacingRight=4;overflow=hidden;rotatable=0;points=[[0,0.5],[1,0.5]];portConstraint=eastwest;whiteSpace=wrap;fontStyle=1" vertex="1" parent="23">
                    <mxGeometry y="270" width="140" height="100" as="geometry"/>
                </mxCell>
                <mxCell id="80" value="Ultra high performance for compute-intensive workloads" style="text;strokeColor=default;fillColor=#E6E6E6;align=center;verticalAlign=middle;spacingLeft=4;spacingRight=4;overflow=hidden;rotatable=0;points=[[0,0.5],[1,0.5]];portConstraint=eastwest;whiteSpace=wrap;fontStyle=1" vertex="1" parent="23">
                    <mxGeometry y="370" width="140" height="80" as="geometry"/>
                </mxCell>
                <mxCell id="79" value="Ultra high memory workloads" style="text;strokeColor=default;fillColor=#99CCFF;align=center;verticalAlign=middle;spacingLeft=4;spacingRight=4;overflow=hidden;rotatable=0;points=[[0,0.5],[1,0.5]];portConstraint=eastwest;whiteSpace=wrap;fontStyle=1" vertex="1" parent="23">
                    <mxGeometry y="450" width="140" height="80" as="geometry"/>
                </mxCell>
                <mxCell id="78" value="Ultra high memory workloads" style="text;strokeColor=default;fillColor=#E6E6E6;align=center;verticalAlign=middle;spacingLeft=4;spacingRight=4;overflow=hidden;rotatable=0;points=[[0,0.5],[1,0.5]];portConstraint=eastwest;whiteSpace=wrap;fontStyle=1" vertex="1" parent="23">
                    <mxGeometry y="530" width="140" height="80" as="geometry"/>
                </mxCell>
                <mxCell id="77" value="Optimized for high-performance computing workloads" style="text;strokeColor=default;fillColor=#99CCFF;align=center;verticalAlign=middle;spacingLeft=4;spacingRight=4;overflow=hidden;rotatable=0;points=[[0,0.5],[1,0.5]];portConstraint=eastwest;whiteSpace=wrap;fontStyle=1" vertex="1" parent="23">
                    <mxGeometry y="610" width="140" height="80" as="geometry"/>
                </mxCell>
                <mxCell id="30" value="Web serving" style="swimlane;fontStyle=1;childLayout=stackLayout;horizontal=1;startSize=26;fillColor=#330066;horizontalStack=0;resizeParent=1;resizeParentMax=0;resizeLast=0;collapsible=1;marginBottom=0;fontColor=#FFFFFF;" parent="1" vertex="1">
                    <mxGeometry x="440" y="190" width="90" height="690" as="geometry"/>
                </mxCell>
                <mxCell id="31" value="V" style="text;strokeColor=default;fillColor=#E6E6E6;align=center;verticalAlign=middle;spacingLeft=4;spacingRight=4;overflow=hidden;rotatable=0;points=[[0,0.5],[1,0.5]];portConstraint=eastwest;" parent="30" vertex="1">
                    <mxGeometry y="26" width="90" height="84" as="geometry"/>
                </mxCell>
                <mxCell id="32" value="V" style="text;strokeColor=default;fillColor=#99CCFF;align=center;verticalAlign=middle;spacingLeft=4;spacingRight=4;overflow=hidden;rotatable=0;points=[[0,0.5],[1,0.5]];portConstraint=eastwest;" parent="30" vertex="1">
                    <mxGeometry y="110" width="90" height="80" as="geometry"/>
                </mxCell>
                <mxCell id="33" value="V" style="text;strokeColor=default;fillColor=#E6E6E6;align=center;verticalAlign=middle;spacingLeft=4;spacingRight=4;overflow=hidden;rotatable=0;points=[[0,0.5],[1,0.5]];portConstraint=eastwest;" parent="30" vertex="1">
                    <mxGeometry y="190" width="90" height="80" as="geometry"/>
                </mxCell>
                <mxCell id="86" value="High-performance" style="text;strokeColor=default;fillColor=#99CCFF;align=center;verticalAlign=middle;spacingLeft=4;spacingRight=4;overflow=hidden;rotatable=0;points=[[0,0.5],[1,0.5]];portConstraint=eastwest;whiteSpace=wrap;fontStyle=1" vertex="1" parent="30">
                    <mxGeometry y="270" width="90" height="100" as="geometry"/>
                </mxCell>
                <mxCell id="85" style="text;strokeColor=default;fillColor=#E6E6E6;align=center;verticalAlign=middle;spacingLeft=4;spacingRight=4;overflow=hidden;rotatable=0;points=[[0,0.5],[1,0.5]];portConstraint=eastwest;" vertex="1" parent="30">
                    <mxGeometry y="370" width="90" height="80" as="geometry"/>
                </mxCell>
                <mxCell id="84" style="text;strokeColor=default;fillColor=#99CCFF;align=center;verticalAlign=middle;spacingLeft=4;spacingRight=4;overflow=hidden;rotatable=0;points=[[0,0.5],[1,0.5]];portConstraint=eastwest;" vertex="1" parent="30">
                    <mxGeometry y="450" width="90" height="80" as="geometry"/>
                </mxCell>
                <mxCell id="83" style="text;strokeColor=default;fillColor=#E6E6E6;align=center;verticalAlign=middle;spacingLeft=4;spacingRight=4;overflow=hidden;rotatable=0;points=[[0,0.5],[1,0.5]];portConstraint=eastwest;" vertex="1" parent="30">
                    <mxGeometry y="530" width="90" height="80" as="geometry"/>
                </mxCell>
                <mxCell id="82" style="text;strokeColor=default;fillColor=#99CCFF;align=center;verticalAlign=middle;spacingLeft=4;spacingRight=4;overflow=hidden;rotatable=0;points=[[0,0.5],[1,0.5]];portConstraint=eastwest;" vertex="1" parent="30">
                    <mxGeometry y="610" width="90" height="80" as="geometry"/>
                </mxCell>
                <mxCell id="58" value="Family" style="swimlane;fontStyle=1;childLayout=stackLayout;horizontal=1;startSize=26;fillColor=#330066;horizontalStack=0;resizeParent=1;resizeParentMax=0;resizeLast=0;collapsible=1;marginBottom=0;fontColor=#FFFFFF;" vertex="1" parent="1">
                    <mxGeometry x="190" y="190" width="110" height="690" as="geometry"/>
                </mxCell>
                <mxCell id="59" value="General Purpose" style="text;strokeColor=default;fillColor=#E6E6E6;align=center;verticalAlign=middle;spacingLeft=4;spacingRight=4;overflow=hidden;rotatable=0;points=[[0,0.5],[1,0.5]];portConstraint=eastwest;fontStyle=1" vertex="1" parent="58">
                    <mxGeometry y="26" width="110" height="84" as="geometry"/>
                </mxCell>
                <mxCell id="60" value="General Purpose" style="text;strokeColor=default;fillColor=#99CCFF;align=center;verticalAlign=middle;spacingLeft=4;spacingRight=4;overflow=hidden;rotatable=0;points=[[0,0.5],[1,0.5]];portConstraint=eastwest;fontStyle=1" vertex="1" parent="58">
                    <mxGeometry y="110" width="110" height="80" as="geometry"/>
                </mxCell>
                <mxCell id="61" value="General Purpose" style="text;strokeColor=default;fillColor=#E6E6E6;align=center;verticalAlign=middle;spacingLeft=4;spacingRight=4;overflow=hidden;rotatable=0;points=[[0,0.5],[1,0.5]];portConstraint=eastwest;fontStyle=1" vertex="1" parent="58">
                    <mxGeometry y="190" width="110" height="80" as="geometry"/>
                </mxCell>
                <mxCell id="76" value="Computed-optimized" style="text;strokeColor=default;fillColor=#99CCFF;align=center;verticalAlign=middle;spacingLeft=4;spacingRight=4;overflow=hidden;rotatable=0;points=[[0,0.5],[1,0.5]];portConstraint=eastwest;fontStyle=1;whiteSpace=wrap;" vertex="1" parent="58">
                    <mxGeometry y="270" width="110" height="100" as="geometry"/>
                </mxCell>
                <mxCell id="75" value="Computed-optimized" style="text;strokeColor=default;fillColor=#E6E6E6;align=center;verticalAlign=middle;spacingLeft=4;spacingRight=4;overflow=hidden;rotatable=0;points=[[0,0.5],[1,0.5]];portConstraint=eastwest;fontStyle=1;whiteSpace=wrap;" vertex="1" parent="58">
                    <mxGeometry y="370" width="110" height="80" as="geometry"/>
                </mxCell>
                <mxCell id="74" value="Memory-optimized" style="text;strokeColor=default;fillColor=#99CCFF;align=center;verticalAlign=middle;spacingLeft=4;spacingRight=4;overflow=hidden;rotatable=0;points=[[0,0.5],[1,0.5]];portConstraint=eastwest;fontStyle=1;whiteSpace=wrap;" vertex="1" parent="58">
                    <mxGeometry y="450" width="110" height="80" as="geometry"/>
                </mxCell>
                <mxCell id="73" value="Memory-optimized" style="text;strokeColor=default;fillColor=#E6E6E6;align=center;verticalAlign=middle;spacingLeft=4;spacingRight=4;overflow=hidden;rotatable=0;points=[[0,0.5],[1,0.5]];portConstraint=eastwest;fontStyle=1;whiteSpace=wrap;" vertex="1" parent="58">
                    <mxGeometry y="530" width="110" height="80" as="geometry"/>
                </mxCell>
                <mxCell id="72" value="Accelerator-optimized" style="text;strokeColor=default;fillColor=#99CCFF;align=center;verticalAlign=middle;spacingLeft=4;spacingRight=4;overflow=hidden;rotatable=0;points=[[0,0.5],[1,0.5]];portConstraint=eastwest;fontStyle=1;whiteSpace=wrap;" vertex="1" parent="58">
                    <mxGeometry y="610" width="110" height="80" as="geometry"/>
                </mxCell>
                <mxCell id="87" value="App serving" style="swimlane;fontStyle=1;childLayout=stackLayout;horizontal=1;startSize=26;fillColor=#330066;horizontalStack=0;resizeParent=1;resizeParentMax=0;resizeLast=0;collapsible=1;marginBottom=0;fontColor=#FFFFFF;" vertex="1" parent="1">
                    <mxGeometry x="530" y="190" width="90" height="690" as="geometry"/>
                </mxCell>
                <mxCell id="88" value="V" style="text;strokeColor=default;fillColor=#E6E6E6;align=center;verticalAlign=middle;spacingLeft=4;spacingRight=4;overflow=hidden;rotatable=0;points=[[0,0.5],[1,0.5]];portConstraint=eastwest;" vertex="1" parent="87">
                    <mxGeometry y="26" width="90" height="84" as="geometry"/>
                </mxCell>
                <mxCell id="89" value="V" style="text;strokeColor=default;fillColor=#99CCFF;align=center;verticalAlign=middle;spacingLeft=4;spacingRight=4;overflow=hidden;rotatable=0;points=[[0,0.5],[1,0.5]];portConstraint=eastwest;" vertex="1" parent="87">
                    <mxGeometry y="110" width="90" height="80" as="geometry"/>
                </mxCell>
                <mxCell id="90" value="V" style="text;strokeColor=default;fillColor=#E6E6E6;align=center;verticalAlign=middle;spacingLeft=4;spacingRight=4;overflow=hidden;rotatable=0;points=[[0,0.5],[1,0.5]];portConstraint=eastwest;" vertex="1" parent="87">
                    <mxGeometry y="190" width="90" height="80" as="geometry"/>
                </mxCell>
                <mxCell id="91" style="text;strokeColor=default;fillColor=#99CCFF;align=center;verticalAlign=middle;spacingLeft=4;spacingRight=4;overflow=hidden;rotatable=0;points=[[0,0.5],[1,0.5]];portConstraint=eastwest;" vertex="1" parent="87">
                    <mxGeometry y="270" width="90" height="100" as="geometry"/>
                </mxCell>
                <mxCell id="92" style="text;strokeColor=default;fillColor=#E6E6E6;align=center;verticalAlign=middle;spacingLeft=4;spacingRight=4;overflow=hidden;rotatable=0;points=[[0,0.5],[1,0.5]];portConstraint=eastwest;" vertex="1" parent="87">
                    <mxGeometry y="370" width="90" height="80" as="geometry"/>
                </mxCell>
                <mxCell id="93" style="text;strokeColor=default;fillColor=#99CCFF;align=center;verticalAlign=middle;spacingLeft=4;spacingRight=4;overflow=hidden;rotatable=0;points=[[0,0.5],[1,0.5]];portConstraint=eastwest;" vertex="1" parent="87">
                    <mxGeometry y="450" width="90" height="80" as="geometry"/>
                </mxCell>
                <mxCell id="94" style="text;strokeColor=default;fillColor=#E6E6E6;align=center;verticalAlign=middle;spacingLeft=4;spacingRight=4;overflow=hidden;rotatable=0;points=[[0,0.5],[1,0.5]];portConstraint=eastwest;" vertex="1" parent="87">
                    <mxGeometry y="530" width="90" height="80" as="geometry"/>
                </mxCell>
                <mxCell id="95" style="text;strokeColor=default;fillColor=#99CCFF;align=center;verticalAlign=middle;spacingLeft=4;spacingRight=4;overflow=hidden;rotatable=0;points=[[0,0.5],[1,0.5]];portConstraint=eastwest;" vertex="1" parent="87">
                    <mxGeometry y="610" width="90" height="80" as="geometry"/>
                </mxCell>
                <mxCell id="96" value="Back office apps" style="swimlane;fontStyle=1;childLayout=stackLayout;horizontal=1;startSize=26;fillColor=#330066;horizontalStack=0;resizeParent=1;resizeParentMax=0;resizeLast=0;collapsible=1;marginBottom=0;fontColor=#FFFFFF;" vertex="1" parent="1">
                    <mxGeometry x="620" y="190" width="100" height="690" as="geometry"/>
                </mxCell>
                <mxCell id="97" value="V" style="text;strokeColor=default;fillColor=#E6E6E6;align=center;verticalAlign=middle;spacingLeft=4;spacingRight=4;overflow=hidden;rotatable=0;points=[[0,0.5],[1,0.5]];portConstraint=eastwest;" vertex="1" parent="96">
                    <mxGeometry y="26" width="100" height="84" as="geometry"/>
                </mxCell>
                <mxCell id="98" value="V" style="text;strokeColor=default;fillColor=#99CCFF;align=center;verticalAlign=middle;spacingLeft=4;spacingRight=4;overflow=hidden;rotatable=0;points=[[0,0.5],[1,0.5]];portConstraint=eastwest;" vertex="1" parent="96">
                    <mxGeometry y="110" width="100" height="80" as="geometry"/>
                </mxCell>
                <mxCell id="99" value="V" style="text;strokeColor=default;fillColor=#E6E6E6;align=center;verticalAlign=middle;spacingLeft=4;spacingRight=4;overflow=hidden;rotatable=0;points=[[0,0.5],[1,0.5]];portConstraint=eastwest;" vertex="1" parent="96">
                    <mxGeometry y="190" width="100" height="80" as="geometry"/>
                </mxCell>
                <mxCell id="100" style="text;strokeColor=default;fillColor=#99CCFF;align=center;verticalAlign=middle;spacingLeft=4;spacingRight=4;overflow=hidden;rotatable=0;points=[[0,0.5],[1,0.5]];portConstraint=eastwest;" vertex="1" parent="96">
                    <mxGeometry y="270" width="100" height="100" as="geometry"/>
                </mxCell>
                <mxCell id="101" style="text;strokeColor=default;fillColor=#E6E6E6;align=center;verticalAlign=middle;spacingLeft=4;spacingRight=4;overflow=hidden;rotatable=0;points=[[0,0.5],[1,0.5]];portConstraint=eastwest;" vertex="1" parent="96">
                    <mxGeometry y="370" width="100" height="80" as="geometry"/>
                </mxCell>
                <mxCell id="102" style="text;strokeColor=default;fillColor=#99CCFF;align=center;verticalAlign=middle;spacingLeft=4;spacingRight=4;overflow=hidden;rotatable=0;points=[[0,0.5],[1,0.5]];portConstraint=eastwest;" vertex="1" parent="96">
                    <mxGeometry y="450" width="100" height="80" as="geometry"/>
                </mxCell>
                <mxCell id="103" style="text;strokeColor=default;fillColor=#E6E6E6;align=center;verticalAlign=middle;spacingLeft=4;spacingRight=4;overflow=hidden;rotatable=0;points=[[0,0.5],[1,0.5]];portConstraint=eastwest;" vertex="1" parent="96">
                    <mxGeometry y="530" width="100" height="80" as="geometry"/>
                </mxCell>
                <mxCell id="104" style="text;strokeColor=default;fillColor=#99CCFF;align=center;verticalAlign=middle;spacingLeft=4;spacingRight=4;overflow=hidden;rotatable=0;points=[[0,0.5],[1,0.5]];portConstraint=eastwest;" vertex="1" parent="96">
                    <mxGeometry y="610" width="100" height="80" as="geometry"/>
                </mxCell>
                <mxCell id="105" value="Database" style="swimlane;fontStyle=1;childLayout=stackLayout;horizontal=1;startSize=26;fillColor=#330066;horizontalStack=0;resizeParent=1;resizeParentMax=0;resizeLast=0;collapsible=1;marginBottom=0;fontColor=#FFFFFF;" vertex="1" parent="1">
                    <mxGeometry x="720" y="190" width="90" height="690" as="geometry"/>
                </mxCell>
                <mxCell id="106" value="Small-medium" style="text;strokeColor=default;fillColor=#E6E6E6;align=center;verticalAlign=middle;spacingLeft=4;spacingRight=4;overflow=hidden;rotatable=0;points=[[0,0.5],[1,0.5]];portConstraint=eastwest;fontStyle=1" vertex="1" parent="105">
                    <mxGeometry y="26" width="90" height="84" as="geometry"/>
                </mxCell>
                <mxCell id="107" value="Medium-large" style="text;strokeColor=default;fillColor=#99CCFF;align=center;verticalAlign=middle;spacingLeft=4;spacingRight=4;overflow=hidden;rotatable=0;points=[[0,0.5],[1,0.5]];portConstraint=eastwest;fontStyle=1" vertex="1" parent="105">
                    <mxGeometry y="110" width="90" height="80" as="geometry"/>
                </mxCell>
                <mxCell id="108" value="" style="text;strokeColor=default;fillColor=#E6E6E6;align=center;verticalAlign=middle;spacingLeft=4;spacingRight=4;overflow=hidden;rotatable=0;points=[[0,0.5],[1,0.5]];portConstraint=eastwest;" vertex="1" parent="105">
                    <mxGeometry y="190" width="90" height="80" as="geometry"/>
                </mxCell>
                <mxCell id="109" style="text;strokeColor=default;fillColor=#99CCFF;align=center;verticalAlign=middle;spacingLeft=4;spacingRight=4;overflow=hidden;rotatable=0;points=[[0,0.5],[1,0.5]];portConstraint=eastwest;" vertex="1" parent="105">
                    <mxGeometry y="270" width="90" height="100" as="geometry"/>
                </mxCell>
                <mxCell id="110" value="High-performance" style="text;strokeColor=default;fillColor=#E6E6E6;align=center;verticalAlign=middle;spacingLeft=4;spacingRight=4;overflow=hidden;rotatable=0;points=[[0,0.5],[1,0.5]];portConstraint=eastwest;whiteSpace=wrap;fontStyle=1" vertex="1" parent="105">
                    <mxGeometry y="370" width="90" height="80" as="geometry"/>
                </mxCell>
                <mxCell id="111" value="Medium in-memory" style="text;strokeColor=default;fillColor=#99CCFF;align=center;verticalAlign=middle;spacingLeft=4;spacingRight=4;overflow=hidden;rotatable=0;points=[[0,0.5],[1,0.5]];portConstraint=eastwest;whiteSpace=wrap;fontStyle=1" vertex="1" parent="105">
                    <mxGeometry y="450" width="90" height="80" as="geometry"/>
                </mxCell>
                <mxCell id="112" value="Large in-memory" style="text;strokeColor=default;fillColor=#E6E6E6;align=center;verticalAlign=middle;spacingLeft=4;spacingRight=4;overflow=hidden;rotatable=0;points=[[0,0.5],[1,0.5]];portConstraint=eastwest;whiteSpace=wrap;fontStyle=1" vertex="1" parent="105">
                    <mxGeometry y="530" width="90" height="80" as="geometry"/>
                </mxCell>
                <mxCell id="113" style="text;strokeColor=default;fillColor=#99CCFF;align=center;verticalAlign=middle;spacingLeft=4;spacingRight=4;overflow=hidden;rotatable=0;points=[[0,0.5],[1,0.5]];portConstraint=eastwest;" vertex="1" parent="105">
                    <mxGeometry y="610" width="90" height="80" as="geometry"/>
                </mxCell>
                <mxCell id="132" value="Others" style="swimlane;fontStyle=1;childLayout=stackLayout;horizontal=1;startSize=26;fillColor=#330066;horizontalStack=0;resizeParent=1;resizeParentMax=0;resizeLast=0;collapsible=1;marginBottom=0;fontColor=#FFFFFF;" vertex="1" parent="1">
                    <mxGeometry x="1050" y="190" width="310" height="690" as="geometry"/>
                </mxCell>
                <mxCell id="133" value="1.Virtual Desktops&#10;2.Development environments" style="text;strokeColor=default;fillColor=#E6E6E6;align=left;verticalAlign=middle;spacingLeft=4;spacingRight=4;overflow=hidden;rotatable=0;points=[[0,0.5],[1,0.5]];portConstraint=eastwest;whiteSpace=wrap;fontStyle=1" vertex="1" parent="132">
                    <mxGeometry y="26" width="310" height="84" as="geometry"/>
                </mxCell>
                <mxCell id="134" value="1.Cache&#10;2.Media/Streaming" style="text;strokeColor=default;fillColor=#99CCFF;align=left;verticalAlign=middle;spacingLeft=4;spacingRight=4;overflow=hidden;rotatable=0;points=[[0,0.5],[1,0.5]];portConstraint=eastwest;whiteSpace=wrap;fontStyle=1" vertex="1" parent="132">
                    <mxGeometry y="110" width="310" height="80" as="geometry"/>
                </mxCell>
                <mxCell id="135" value="1.Large-scale Java applications" style="text;strokeColor=default;fillColor=#E6E6E6;align=left;verticalAlign=middle;spacingLeft=4;spacingRight=4;overflow=hidden;rotatable=0;points=[[0,0.5],[1,0.5]];portConstraint=eastwest;fontStyle=1" vertex="1" parent="132">
                    <mxGeometry y="190" width="310" height="80" as="geometry"/>
                </mxCell>
                <mxCell id="136" value="1.Compute-bound workloads&#10;2. Gaming (AAA game servers)&#10;3.Ad serving&#10;4. HPC&#10;5.AI/ML" style="text;strokeColor=default;fillColor=#99CCFF;align=left;verticalAlign=middle;spacingLeft=4;spacingRight=4;overflow=hidden;rotatable=0;points=[[0,0.5],[1,0.5]];portConstraint=eastwest;fontStyle=1" vertex="1" parent="132">
                    <mxGeometry y="270" width="310" height="100" as="geometry"/>
                </mxCell>
                <mxCell id="137" value="1.Memory-bound workloads&#10;2. Gaming (AAA game servers)&#10;3.HPC&#10;4.Electronic Design Automation" style="text;strokeColor=default;fillColor=#E6E6E6;align=left;verticalAlign=middle;spacingLeft=4;spacingRight=4;overflow=hidden;rotatable=0;points=[[0,0.5],[1,0.5]];portConstraint=eastwest;whiteSpace=wrap;fontStyle=1" vertex="1" parent="132">
                    <mxGeometry y="370" width="310" height="80" as="geometry"/>
                </mxCell>
                <mxCell id="138" value="1.Tasks that require intensive use of memory-to-vCPU ratios than the general-purpose high-momory machine types&#10;2. In-memory dtabases and in-memory analytics&#10;3. Business warehousing" style="text;strokeColor=default;fillColor=#99CCFF;align=left;verticalAlign=middle;spacingLeft=4;spacingRight=4;overflow=hidden;rotatable=0;points=[[0,0.5],[1,0.5]];portConstraint=eastwest;fontStyle=1;whiteSpace=wrap;" vertex="1" parent="132">
                    <mxGeometry y="450" width="310" height="80" as="geometry"/>
                </mxCell>
                <mxCell id="139" value="1. In-memory dtabases and in-memory analytics&#10;2. Business warehousing" style="text;strokeColor=default;fillColor=#E6E6E6;align=left;verticalAlign=middle;spacingLeft=4;spacingRight=4;overflow=hidden;rotatable=0;points=[[0,0.5],[1,0.5]];portConstraint=eastwest;fontStyle=1" vertex="1" parent="132">
                    <mxGeometry y="530" width="310" height="80" as="geometry"/>
                </mxCell>
                <mxCell id="140" value="1. HPC&#10;2. CUDA-enabled ML training and inference&#10;3. Massive parallelized computation" style="text;strokeColor=default;fillColor=#99CCFF;align=left;verticalAlign=middle;spacingLeft=4;spacingRight=4;overflow=hidden;rotatable=0;points=[[0,0.5],[1,0.5]];portConstraint=eastwest;fontStyle=1" vertex="1" parent="132">
                    <mxGeometry y="610" width="310" height="80" as="geometry"/>
                </mxCell>
                <mxCell id="141" value="Microservices" style="swimlane;fontStyle=1;childLayout=stackLayout;horizontal=1;startSize=26;fillColor=#330066;horizontalStack=0;resizeParent=1;resizeParentMax=0;resizeLast=0;collapsible=1;marginBottom=0;fontColor=#FFFFFF;" vertex="1" parent="1">
                    <mxGeometry x="810" y="190" width="110" height="690" as="geometry"/>
                </mxCell>
                <mxCell id="142" value="V" style="text;strokeColor=default;fillColor=#E6E6E6;align=center;verticalAlign=middle;spacingLeft=4;spacingRight=4;overflow=hidden;rotatable=0;points=[[0,0.5],[1,0.5]];portConstraint=eastwest;" vertex="1" parent="141">
                    <mxGeometry y="26" width="110" height="84" as="geometry"/>
                </mxCell>
                <mxCell id="143" value="" style="text;strokeColor=default;fillColor=#99CCFF;align=center;verticalAlign=middle;spacingLeft=4;spacingRight=4;overflow=hidden;rotatable=0;points=[[0,0.5],[1,0.5]];portConstraint=eastwest;" vertex="1" parent="141">
                    <mxGeometry y="110" width="110" height="80" as="geometry"/>
                </mxCell>
                <mxCell id="144" value="Containerized" style="text;strokeColor=default;fillColor=#E6E6E6;align=center;verticalAlign=middle;spacingLeft=4;spacingRight=4;overflow=hidden;rotatable=0;points=[[0,0.5],[1,0.5]];portConstraint=eastwest;fontStyle=1" vertex="1" parent="141">
                    <mxGeometry y="190" width="110" height="80" as="geometry"/>
                </mxCell>
                <mxCell id="145" style="text;strokeColor=default;fillColor=#99CCFF;align=center;verticalAlign=middle;spacingLeft=4;spacingRight=4;overflow=hidden;rotatable=0;points=[[0,0.5],[1,0.5]];portConstraint=eastwest;" vertex="1" parent="141">
                    <mxGeometry y="270" width="110" height="100" as="geometry"/>
                </mxCell>
                <mxCell id="146" style="text;strokeColor=default;fillColor=#E6E6E6;align=center;verticalAlign=middle;spacingLeft=4;spacingRight=4;overflow=hidden;rotatable=0;points=[[0,0.5],[1,0.5]];portConstraint=eastwest;" vertex="1" parent="141">
                    <mxGeometry y="370" width="110" height="80" as="geometry"/>
                </mxCell>
                <mxCell id="147" style="text;strokeColor=default;fillColor=#99CCFF;align=center;verticalAlign=middle;spacingLeft=4;spacingRight=4;overflow=hidden;rotatable=0;points=[[0,0.5],[1,0.5]];portConstraint=eastwest;" vertex="1" parent="141">
                    <mxGeometry y="450" width="110" height="80" as="geometry"/>
                </mxCell>
                <mxCell id="148" style="text;strokeColor=default;fillColor=#E6E6E6;align=center;verticalAlign=middle;spacingLeft=4;spacingRight=4;overflow=hidden;rotatable=0;points=[[0,0.5],[1,0.5]];portConstraint=eastwest;" vertex="1" parent="141">
                    <mxGeometry y="530" width="110" height="80" as="geometry"/>
                </mxCell>
                <mxCell id="149" style="text;strokeColor=default;fillColor=#99CCFF;align=center;verticalAlign=middle;spacingLeft=4;spacingRight=4;overflow=hidden;rotatable=0;points=[[0,0.5],[1,0.5]];portConstraint=eastwest;" vertex="1" parent="141">
                    <mxGeometry y="610" width="110" height="80" as="geometry"/>
                </mxCell>
                <mxCell id="150" value="Media transcoding" style="swimlane;fontStyle=1;childLayout=stackLayout;horizontal=1;startSize=26;fillColor=#330066;horizontalStack=0;resizeParent=1;resizeParentMax=0;resizeLast=0;collapsible=1;marginBottom=0;fontColor=#FFFFFF;" vertex="1" parent="1">
                    <mxGeometry x="920" y="190" width="130" height="690" as="geometry"/>
                </mxCell>
                <mxCell id="151" value="" style="text;strokeColor=default;fillColor=#E6E6E6;align=center;verticalAlign=middle;spacingLeft=4;spacingRight=4;overflow=hidden;rotatable=0;points=[[0,0.5],[1,0.5]];portConstraint=eastwest;" vertex="1" parent="150">
                    <mxGeometry y="26" width="130" height="84" as="geometry"/>
                </mxCell>
                <mxCell id="152" value="" style="text;strokeColor=default;fillColor=#99CCFF;align=center;verticalAlign=middle;spacingLeft=4;spacingRight=4;overflow=hidden;rotatable=0;points=[[0,0.5],[1,0.5]];portConstraint=eastwest;" vertex="1" parent="150">
                    <mxGeometry y="110" width="130" height="80" as="geometry"/>
                </mxCell>
                <mxCell id="153" value="V" style="text;strokeColor=default;fillColor=#E6E6E6;align=center;verticalAlign=middle;spacingLeft=4;spacingRight=4;overflow=hidden;rotatable=0;points=[[0,0.5],[1,0.5]];portConstraint=eastwest;fontStyle=1" vertex="1" parent="150">
                    <mxGeometry y="190" width="130" height="80" as="geometry"/>
                </mxCell>
                <mxCell id="154" value="V" style="text;strokeColor=default;fillColor=#99CCFF;align=center;verticalAlign=middle;spacingLeft=4;spacingRight=4;overflow=hidden;rotatable=0;points=[[0,0.5],[1,0.5]];portConstraint=eastwest;" vertex="1" parent="150">
                    <mxGeometry y="270" width="130" height="100" as="geometry"/>
                </mxCell>
                <mxCell id="155" value="V" style="text;strokeColor=default;fillColor=#E6E6E6;align=center;verticalAlign=middle;spacingLeft=4;spacingRight=4;overflow=hidden;rotatable=0;points=[[0,0.5],[1,0.5]];portConstraint=eastwest;" vertex="1" parent="150">
                    <mxGeometry y="370" width="130" height="80" as="geometry"/>
                </mxCell>
                <mxCell id="156" style="text;strokeColor=default;fillColor=#99CCFF;align=center;verticalAlign=middle;spacingLeft=4;spacingRight=4;overflow=hidden;rotatable=0;points=[[0,0.5],[1,0.5]];portConstraint=eastwest;" vertex="1" parent="150">
                    <mxGeometry y="450" width="130" height="80" as="geometry"/>
                </mxCell>
                <mxCell id="157" style="text;strokeColor=default;fillColor=#E6E6E6;align=center;verticalAlign=middle;spacingLeft=4;spacingRight=4;overflow=hidden;rotatable=0;points=[[0,0.5],[1,0.5]];portConstraint=eastwest;" vertex="1" parent="150">
                    <mxGeometry y="530" width="130" height="80" as="geometry"/>
                </mxCell>
                <mxCell id="158" style="text;strokeColor=default;fillColor=#99CCFF;align=center;verticalAlign=middle;spacingLeft=4;spacingRight=4;overflow=hidden;rotatable=0;points=[[0,0.5],[1,0.5]];portConstraint=eastwest;" vertex="1" parent="150">
                    <mxGeometry y="610" width="130" height="80" as="geometry"/>
                </mxCell>
            </root>
        </mxGraphModel>
    </diagram>
</mxfile>